<?xml version="1.0" encoding="UTF-8" standalone="no"?><!DOCTYPE svg PUBLIC "-//W3C//DTD SVG 1.1//EN" "http://www.w3.org/Graphics/SVG/1.1/DTD/svg11.dtd"><svg width="100%" height="100%" viewBox="0 0 191 161" version="1.1" xmlns="http://www.w3.org/2000/svg" xmlns:xlink="http://www.w3.org/1999/xlink" xml:space="preserve" xmlns:serif="http://www.serif.com/" style="fill-rule:evenodd;clip-rule:evenodd;stroke-linejoin:round;stroke-miterlimit:2;"><g><g><g><path d="M16.13,89.45l0.82,-0c1.12,-0 2.42,0.14 3.88,0.42c1.46,0.28 2.61,0.45 3.45,0.49c0.83,0.05 1.49,0.21 1.98,0.48c0.93,0.53 1.4,1.9 1.4,4.12c0,2.22 -0.42,3.33 -1.25,3.33c-0.27,-0 -0.95,-0.61 -2.02,-1.84c-1.08,-1.23 -2.1,-2.11 -3.08,-2.64c-1.73,-0.93 -3.68,-1.4 -5.83,-1.4c-1.24,0 -2.48,0.34 -3.73,1.01c-3.77,2.01 -5.66,6.38 -5.66,13.1c0.02,4.18 0.99,7.55 2.92,10.12c1.93,2.57 4.61,3.85 8.05,3.85c2.94,-0 5.43,-0.97 7.47,-2.92c1.27,-1.2 2.08,-1.81 2.43,-1.81c0.67,0 1.01,0.49 1.01,1.47c0,0.5 -0.31,1.28 -0.94,2.34c-0.63,1.06 -1.33,1.81 -2.1,2.24c-2.17,1.2 -4.99,1.81 -8.46,1.81l-0.84,0c-1.94,0 -3.91,-0.35 -5.9,-1.06c-4.03,-1.43 -6.86,-4.26 -8.48,-8.48c-0.83,-2.2 -1.25,-4.6 -1.25,-7.21c0,-2.61 0.42,-5.01 1.25,-7.19c1.69,-4.43 4.54,-7.44 8.58,-9.03c2,-0.79 4.11,-1.2 6.3,-1.2Z" style="fill:#fff;fill-rule:nonzero;"/><path d="M32.82,121.93c-0,-0.29 0.35,-0.81 1.04,-1.58c0.69,-0.76 1.12,-1.53 1.29,-2.3c0.17,-0.77 0.25,-4.83 0.25,-12.19c0,-7.36 -0.17,-11.81 -0.51,-13.37c-0.16,-0.75 -0.5,-1.31 -1.01,-1.66c-0.93,-0.66 -1.4,-1.01 -1.4,-1.06c-0,-0.59 0.31,-1.01 0.94,-1.25c1.19,-0.46 2.58,-0.7 4.17,-0.7l0.79,-0c0.74,-0 1.26,0.3 1.58,0.89c0.31,0.59 0.47,1.9 0.47,3.93l-0.02,0.89c-0.02,0.59 -0.02,1.19 -0.02,1.78l-0.05,1.78l0,1.78c0,2.1 0.37,3.16 1.11,3.16c0.08,-0.02 0.49,-0.18 1.23,-0.51c2.23,-1 4.1,-1.49 5.61,-1.49c2.83,-0 4.81,1.13 5.95,3.4c0.75,1.54 1.13,5.33 1.13,11.37c0,2.33 0.08,3.78 0.25,4.35c0.17,0.57 0.63,1.16 1.37,1.77c0.75,0.61 1.12,1 1.12,1.16c0,0.5 -0.33,0.84 -0.98,1.01c-0.65,0.18 -2.31,0.27 -4.97,0.27l-0.84,-0c-1.75,-0 -2.63,-0.35 -2.63,-1.06c0,-0.16 0.21,-0.57 0.63,-1.22c0.42,-0.65 0.69,-1.39 0.82,-2.21c0.13,-0.82 0.19,-2.96 0.19,-6.43c0,-3.47 -0.16,-5.65 -0.48,-6.55c-1.11,-1.45 -2.34,-2.33 -3.69,-2.65c-1.85,-0 -3.32,0.66 -4.43,1.97c-0.82,0.96 -1.23,3.16 -1.23,6.59c-0,3.43 0.08,5.61 0.24,6.55c0.16,0.94 0.51,1.79 1.05,2.55c0.54,0.76 0.81,1.23 0.81,1.41c-0,0.58 -1.63,0.87 -4.89,0.87c-3.26,-0 -4.89,-0.42 -4.89,-1.25Z" style="fill:#fff;fill-rule:nonzero;"/><path d="M63.1,104.32c-0,-1.19 0.94,-2.25 2.83,-3.19c1.89,-0.94 3.84,-1.41 5.87,-1.41l0.19,-0c1.93,-0 3.47,0.23 4.63,0.7c2.34,0.93 3.69,2.91 4.02,5.93c0.03,0.3 0.05,2.32 0.05,6.06c-0,3.74 0.1,5.92 0.3,6.56c0.2,0.64 0.75,1.12 1.64,1.42c0.89,0.31 1.34,0.59 1.34,0.87c-0,0.58 -0.29,1.02 -0.87,1.32c-1.16,0.61 -2.29,0.92 -3.41,0.92c-1.12,-0 -1.95,-0.26 -2.49,-0.77c-0.98,-0.92 -1.5,-1.37 -1.57,-1.37c-0.06,-0 -0.97,0.41 -2.72,1.22c-1.75,0.81 -3.28,1.22 -4.6,1.22c-1.98,-0 -3.53,-0.55 -4.65,-1.64c-1.12,-1.09 -1.69,-2.42 -1.69,-3.97l-0,-0.6c-0,-1.67 0.72,-3.14 2.17,-4.41c1.45,-1.27 4.05,-2.26 7.81,-2.96c1.36,-0.26 2.22,-0.5 2.58,-0.72c0.71,-0.45 1.06,-1.37 1.06,-2.75c-0,-1.38 -0.37,-2.44 -1.11,-3.18c-0.74,-0.74 -1.73,-1.11 -2.96,-1.11c-1.23,-0 -2.43,0.72 -3.58,2.16c-1.15,1.44 -2.2,2.16 -3.14,2.16c-1.14,-0.03 -1.7,-0.84 -1.7,-2.46Zm11.71,7.78l-0.41,-0c-2.1,-0 -3.86,0.47 -5.26,1.41c-1.41,0.94 -2.11,2.11 -2.11,3.5l-0,0.48c-0,0.82 0.25,1.55 0.76,2.2c0.51,0.65 1.16,0.98 1.96,0.98l0.29,0.05l0.72,-0c1.67,-0 3.04,-0.68 4.1,-2.05c0.47,-0.59 0.7,-1.81 0.7,-3.66l-0,-0.43l0.02,-0.58l-0,-0.58c-0,-0.88 -0.26,-1.32 -0.77,-1.32Z" style="fill:#fff;fill-rule:nonzero;"/><path d="M99.84,122.31c0,0.63 -1.45,0.94 -4.36,0.94l-2.55,0l-1.01,-0.05l-1.52,-0.02c-1.7,-0 -2.55,-0.3 -2.55,-0.92c-0,-0.43 0.38,-0.9 1.14,-1.39c0.76,-0.49 1.28,-1.12 1.54,-1.9c0.27,-0.78 0.4,-3.08 0.4,-6.9c-0,-3.82 -0.12,-6.14 -0.37,-6.96c-0.25,-0.82 -0.64,-1.41 -1.17,-1.76c-0.95,-0.63 -1.42,-1.08 -1.42,-1.37c-0,-0.29 0.17,-0.55 0.51,-0.77c1,-0.67 2.68,-1.01 5.06,-1.01l0.46,0c0.92,0 1.57,0.46 1.95,1.39c0.39,0.92 0.7,1.38 0.94,1.38c0.24,-0 0.65,-0.22 1.24,-0.67c0.59,-0.45 1.29,-0.9 2.12,-1.35c0.83,-0.45 1.75,-0.67 2.76,-0.67c1.01,-0 1.79,0.26 2.32,0.78c0.54,0.52 0.81,1.19 0.81,2.01c-0.02,0.83 -0.23,1.46 -0.65,1.88c-0.42,0.42 -0.87,0.63 -1.35,0.63c-0.48,0 -1.12,-0.2 -1.9,-0.59c-0.79,-0.39 -1.45,-0.59 -1.98,-0.59c-0.53,0 -1.11,0.22 -1.73,0.66c-0.63,0.44 -1.16,1.23 -1.6,2.36c-0.44,1.13 -0.66,3.07 -0.66,5.81c0,2.74 0.19,4.5 0.58,5.3c0.39,0.79 0.98,1.52 1.79,2.18c0.79,0.65 1.2,1.19 1.2,1.6Z" style="fill:#fff;fill-rule:nonzero;"/><path d="M119.76,120.07l3.66,-0.55c0.42,-0 0.63,0.33 0.63,0.98c-0,0.65 -0.62,1.32 -1.85,2.01c-1.24,0.69 -2.54,1.04 -3.9,1.04l-0.48,-0c-1.08,-0 -2.05,-0.28 -2.92,-0.84c-0.87,-0.56 -1.5,-1.25 -1.9,-2.07c-0.69,-1.43 -1.04,-4.14 -1.04,-8.13c0,-3.99 -0.14,-6.48 -0.42,-7.48c-0.28,-1 -0.65,-1.68 -1.1,-2.05c-0.84,-0.67 -1.25,-1.04 -1.25,-1.11c0,-0.42 0.22,-0.77 0.65,-1.06c1.11,-0.74 1.71,-1.16 1.82,-1.26c0.1,-0.1 0.72,-1.42 1.84,-3.94c0.56,-1.25 1.2,-1.88 1.92,-1.88c0.71,-0 1.19,0.26 1.43,0.77c0.06,0.13 0.2,0.83 0.42,2.1c0.22,1.27 0.53,2.08 0.93,2.45c0.4,0.37 1.29,0.71 2.67,1.04c1.38,0.33 2.07,0.8 2.07,1.41c0,0.61 -0.76,1.07 -2.29,1.37c-1.53,0.31 -2.45,0.7 -2.77,1.18c-0.56,0.82 -0.84,3.13 -0.84,6.94c0,3.81 0.18,6.21 0.53,7.2c0.45,1.25 1.18,1.88 2.19,1.88Z" style="fill:#fff;fill-rule:nonzero;"/><path d="M127.52,122.41c0,-0.34 0.37,-0.77 1.1,-1.3c0.73,-0.53 1.22,-1.36 1.48,-2.49c0.26,-1.13 0.39,-5.43 0.39,-12.9c0,-7.47 -0.08,-11.7 -0.25,-12.7c-0.17,-1 -0.58,-1.71 -1.24,-2.14c-1.06,-0.69 -1.59,-1.12 -1.59,-1.28l0,-0.29c0,-0.27 0.23,-0.51 0.7,-0.72c1.45,-0.63 3.37,-0.94 5.78,-0.94l0.48,-0c0.82,-0 1.29,0.55 1.42,1.66c0.02,0.14 0.02,1.36 0.02,3.64l0,5.18l-0.02,0.99l0,1.52l-0.02,0.99l0,7.64c0,4.75 0.08,7.7 0.23,8.83c0.15,1.13 0.51,1.96 1.07,2.47c0.06,0.05 0.4,0.26 1.01,0.63c0.61,0.37 0.92,0.75 0.92,1.13c0,0.56 -1,0.84 -2.99,0.84l-0.99,0.05l-0.99,0l-3.95,0.07l-0.51,0c-1.37,-0.01 -2.05,-0.3 -2.05,-0.88Z" style="fill:#fff;fill-rule:nonzero;"/><path d="M147.85,113.98c0,1.83 0.69,3.36 2.07,4.6c1.38,1.24 3.13,1.86 5.25,1.86c0.85,0 1.63,-0.12 2.32,-0.37c0.7,-0.25 1.46,-0.55 2.29,-0.9c0.83,-0.35 1.35,-0.53 1.55,-0.53c0.64,0 0.96,0.35 0.96,1.04c0,0.93 -1.19,1.93 -3.57,2.99c-1.54,0.69 -3.2,1.04 -4.96,1.04l-0.51,-0c-3.02,-0 -5.52,-0.92 -7.52,-2.75c-1.08,-1 -1.91,-2.27 -2.51,-3.82c-0.6,-1.55 -0.89,-3.22 -0.89,-5l0.02,-0.55l0,-0.55c0,-1.54 0.35,-3.06 1.06,-4.55c0.72,-1.49 1.58,-2.72 2.58,-3.69c2.1,-2.02 4.6,-3.04 7.49,-3.06c4.37,-0 7.27,1.7 8.72,5.11c0.45,1.08 0.67,2.06 0.67,2.96l0,0.48c0,1.11 -0.46,1.85 -1.37,2.23c-0.92,0.38 -3.08,0.69 -6.48,0.93c-3.4,0.24 -5.25,0.4 -5.54,0.48c-1.08,0.25 -1.63,0.94 -1.63,2.05Zm10.02,-6.39l-0,-0.75c-0,-1.19 -0.43,-2.26 -1.28,-3.22c-0.85,-0.96 -1.9,-1.43 -3.13,-1.43l-0.46,0c-0.23,0.03 -0.38,0.05 -0.46,0.05c-1.12,0 -2.19,0.64 -3.19,1.93c-1,1.29 -1.51,2.66 -1.51,4.12l-0,0.31c-0,0.51 0.3,0.77 0.92,0.77c0.24,0.05 0.37,0.07 0.39,0.07l0.55,0.02l0.14,0l0.17,-0.02l4.65,-0.26l0.87,-0.1c1.56,0.01 2.34,-0.49 2.34,-1.49Z" style="fill:#fff;fill-rule:nonzero;"/><path d="M174.73,103.31c0,1.72 1.33,5.8 4,12.24c0.37,0.9 0.67,1.35 0.89,1.35c0.22,-0 0.64,-0.65 1.25,-1.95c2.22,-4.69 3.32,-8.23 3.32,-10.62c0,-0.69 -0.11,-1.25 -0.34,-1.69l-0.27,-0.43c-0.39,-0.51 -0.58,-0.88 -0.58,-1.08c0,-0.63 1.02,-0.94 3.06,-0.94l1.54,0c1.94,0 2.92,0.37 2.92,1.11c0,0.42 -0.4,1.06 -1.19,1.92c-0.79,0.86 -1.37,1.69 -1.72,2.49c-0.35,0.8 -1.64,4.16 -3.87,10.06c-2.22,5.9 -3.95,9.93 -5.17,12.09c-1.22,2.16 -2.36,3.71 -3.41,4.66c-1.05,0.95 -2.13,1.42 -3.24,1.42l-0.63,0c-0.84,0 -1.55,-0.24 -2.13,-0.71c-0.59,-0.47 -0.88,-0.96 -0.88,-1.47c0,-0.51 0.21,-0.92 0.61,-1.23c0.41,-0.31 0.95,-0.47 1.63,-0.47l0.55,0.05c0.24,0.02 0.61,0.02 1.11,0.02c1.12,0 2.16,-0.72 3.11,-2.17c0.95,-1.45 1.42,-2.91 1.42,-4.38c0,-1.47 -2.29,-7.06 -6.87,-16.74c-0.42,-0.88 -1.03,-1.8 -1.84,-2.75c-0.81,-0.95 -1.22,-1.61 -1.22,-1.98c0,-0.61 0.43,-1.04 1.28,-1.29c0.85,-0.25 2.22,-0.37 4.11,-0.37c1.89,0 2.83,0.41 2.83,1.23c-0.17,0.82 -0.27,1.37 -0.27,1.63Z" style="fill:#fff;fill-rule:nonzero;"/></g><g><g><path d="M53.5,135.59l0.71,0c4.55,0.01 7.55,1.79 8.99,5.33c0.47,1.16 0.71,2.4 0.71,3.7l-0,0.38c-0,1.51 -0.25,2.86 -0.75,4.06c-0.98,2.35 -2.71,4 -5.18,4.95c-1.14,0.44 -2.39,0.65 -3.76,0.65l-1.02,0l-0.34,-0.01l-0.7,-0.01c-0.23,-0.01 -0.46,-0.01 -0.7,-0.01l-2,-0.04c-2.04,0 -3.05,-0.15 -3.05,-0.45c-0,-0.3 0.2,-0.55 0.59,-0.75c0.67,-0.34 1.06,-0.62 1.16,-0.82c0.22,-0.42 0.33,-1.37 0.33,-2.86l-0,-6.46l-0.03,-1.73l-0.03,-1.38c-0,-1.22 -0.11,-1.99 -0.32,-2.32c-0.21,-0.33 -0.55,-0.59 -1.02,-0.78c-0.47,-0.19 -0.7,-0.44 -0.7,-0.73c0,-0.35 0.7,-0.52 2.09,-0.52l1.31,-0.03l0.33,-0.03l0.33,-0.01c1.93,-0.09 2.96,-0.13 3.05,-0.13Zm0.3,1.48l-0.65,-0c-1,-0 -1.55,0.2 -1.66,0.6c-0.05,0.19 -0.08,1.54 -0.08,4.05l0,5.1l-0.01,0.67l0,0.68l-0.01,0.67l0,0.68l-0.01,0.89l-0,0.67c-0,0.95 0.13,1.53 0.4,1.75c0.26,0.22 0.9,0.33 1.92,0.33l0.22,-0.01c1.9,-0 3.42,-0.63 4.55,-1.88c0.57,-0.63 1.02,-1.45 1.35,-2.46c0.33,-1.01 0.49,-2.04 0.49,-3.09l-0,-0.99c-0,-0.97 -0.15,-1.97 -0.44,-2.99c-0.6,-2.05 -1.79,-3.46 -3.56,-4.21c-0.74,-0.31 -1.57,-0.46 -2.51,-0.46Z" style="fill:#fff;fill-rule:nonzero;"/><path d="M69.59,149.36c0,1.04 0.39,1.91 1.17,2.6c0.78,0.7 1.77,1.05 2.97,1.05c0.48,-0 0.92,-0.07 1.32,-0.21c0.4,-0.14 0.83,-0.31 1.3,-0.51c0.47,-0.2 0.76,-0.3 0.88,-0.3c0.36,-0 0.55,0.2 0.55,0.59c0,0.53 -0.67,1.09 -2.02,1.69c-0.87,0.39 -1.81,0.59 -2.81,0.59l-0.3,-0c-1.71,-0 -3.13,-0.52 -4.25,-1.55c-0.61,-0.56 -1.08,-1.28 -1.42,-2.16c-0.34,-0.88 -0.5,-1.82 -0.5,-2.83l0.01,-0.31l0,-0.31c0,-0.87 0.2,-1.73 0.6,-2.58c0.41,-0.85 0.9,-1.54 1.46,-2.09c1.19,-1.15 2.6,-1.72 4.24,-1.73c2.47,-0 4.12,0.96 4.94,2.89c0.25,0.61 0.38,1.17 0.38,1.68l0,0.27c0,0.63 -0.26,1.05 -0.78,1.26c-0.52,0.21 -1.74,0.39 -3.67,0.52c-1.93,0.14 -2.97,0.23 -3.14,0.27c-0.62,0.16 -0.93,0.55 -0.93,1.17Zm5.67,-3.61l0,-0.42c0,-0.67 -0.24,-1.28 -0.72,-1.82c-0.48,-0.54 -1.07,-0.81 -1.77,-0.81l-0.26,0c-0.13,0.02 -0.21,0.03 -0.26,0.03c-0.64,0 -1.24,0.36 -1.81,1.09c-0.57,0.73 -0.85,1.5 -0.85,2.33l0,0.18c0,0.29 0.17,0.44 0.52,0.44c0.14,0.03 0.21,0.04 0.22,0.04l0.31,0.01l0.08,0l0.1,-0.01l2.63,-0.15l0.49,-0.05c0.88,-0.01 1.32,-0.3 1.32,-0.86Z" style="fill:#fff;fill-rule:nonzero;"/><path d="M90.49,151.08c0,1.04 -0.43,1.93 -1.28,2.67c-0.85,0.74 -2.04,1.11 -3.54,1.11l-0.37,-0c-1.72,-0 -3.03,-0.21 -3.93,-0.64c-0.5,-0.24 -0.75,-0.76 -0.75,-1.58l0,-0.34c0,-1.04 0.2,-1.57 0.59,-1.57c0.33,-0 0.71,0.31 1.16,0.92c0.45,0.61 0.82,1.03 1.12,1.23c0.58,0.4 1.27,0.6 2.05,0.6c0.78,-0 1.37,-0.17 1.74,-0.5c0.37,-0.33 0.56,-0.77 0.56,-1.32c0,-0.54 -0.32,-1.05 -0.95,-1.51c-0.34,-0.25 -1.12,-0.63 -2.35,-1.16c-1.23,-0.53 -2.15,-1.08 -2.76,-1.66c-0.61,-0.58 -0.91,-1.39 -0.91,-2.45c0,-1.05 0.44,-1.91 1.32,-2.57c0.88,-0.66 1.97,-0.99 3.26,-0.99l0.37,-0c1.69,-0 2.88,0.2 3.56,0.6c0.35,0.21 0.53,0.79 0.53,1.75c0,0.95 -0.23,1.43 -0.68,1.43c-0.25,-0 -0.6,-0.28 -1.04,-0.85c-0.44,-0.57 -0.84,-0.97 -1.21,-1.21c-0.36,-0.24 -0.87,-0.36 -1.51,-0.36c-0.64,-0 -1.15,0.15 -1.52,0.44c-0.37,0.29 -0.56,0.71 -0.56,1.26c0,0.55 0.34,1.04 1.02,1.48c0.17,0.12 0.93,0.47 2.26,1.05c1.33,0.58 2.25,1.11 2.75,1.58c0.71,0.68 1.07,1.55 1.07,2.59Z" style="fill:#fff;fill-rule:nonzero;"/><path d="M93.5,143.19c-0.47,-0.23 -0.71,-0.44 -0.71,-0.64c0,-0.2 0.1,-0.36 0.29,-0.48c0.66,-0.4 1.71,-0.6 3.15,-0.6l0.4,0c0.49,0 0.77,0.23 0.83,0.68c0.04,0.25 0.05,1.9 0.05,4.96c0,3.06 0.06,4.81 0.19,5.26c0.13,0.45 0.43,0.8 0.91,1.04c0.48,0.24 0.72,0.48 0.72,0.73c0,0.35 -1.13,0.52 -3.38,0.52l-0.41,0.01l-1.66,0c-0.66,0 -1,-0.16 -1,-0.49c0,-0.27 0.2,-0.54 0.61,-0.79c0.4,-0.25 0.68,-0.54 0.84,-0.84c0.17,-0.34 0.26,-1.12 0.26,-2.36l0.01,-0.44l0,-0.42l0.01,-0.64l0,-0.42l0.01,-0.42c0,-2.15 -0.07,-3.41 -0.21,-3.77c-0.13,-0.37 -0.43,-0.66 -0.91,-0.89Zm4.34,-6.08c-0,0.4 -0.17,0.77 -0.51,1.11c-0.34,0.34 -0.68,0.51 -1.02,0.51c-0.07,0.02 -0.13,0.03 -0.18,0.03l-0.3,0.03c-0.45,-0 -0.86,-0.15 -1.22,-0.45c-0.36,-0.3 -0.54,-0.69 -0.54,-1.16l-0,-0.25c-0,-0.47 0.19,-0.87 0.57,-1.19c0.38,-0.32 0.81,-0.48 1.3,-0.48l0.07,-0l0.46,0.05c0.28,-0 0.58,0.15 0.88,0.46c0.3,0.3 0.46,0.61 0.46,0.92l0.03,0.12l-0,0.3Z" style="fill:#fff;fill-rule:nonzero;"/><path d="M114.42,142.02c-0,0.52 -0.33,0.85 -0.98,0.99c-0.65,0.14 -0.98,0.41 -0.98,0.81l0.04,0.29l0.05,0.33l0.07,0.35c0.05,0.3 0.07,0.72 0.07,1.27c0,0.55 -0.15,1.11 -0.46,1.69c-0.86,1.61 -2.53,2.49 -4.99,2.65c-0.79,0.05 -1.3,0.12 -1.51,0.2c-0.47,0.18 -0.71,0.49 -0.71,0.91c-0,0.43 0.35,0.73 1.05,0.9c0.1,0.03 1,0.11 2.71,0.26c1.71,0.14 2.85,0.35 3.42,0.64c1.21,0.6 1.81,1.47 1.81,2.6c0,1.49 -0.67,2.71 -2,3.64c-1.33,0.94 -3.07,1.4 -5.23,1.4c-1.52,-0 -2.78,-0.29 -3.79,-0.87c-0.46,-0.26 -0.84,-0.61 -1.12,-1.03c-0.29,-0.42 -0.43,-0.86 -0.43,-1.32c0,-0.81 0.24,-1.48 0.72,-2.02c0.77,-0.85 1.16,-1.31 1.16,-1.36c0,-0.05 -0.17,-0.3 -0.5,-0.72c-0.34,-0.43 -0.5,-0.87 -0.5,-1.34c0,-0.46 0.22,-0.97 0.66,-1.51c0.44,-0.54 0.66,-0.84 0.66,-0.91c0,-0.07 -0.27,-0.53 -0.82,-1.4c-0.55,-0.87 -0.82,-1.69 -0.82,-2.48c0,-0.78 0.17,-1.48 0.5,-2.09c0.95,-1.74 2.73,-2.6 5.33,-2.6l0.4,-0l1.9,0.12l0.7,0.03c0.24,0.01 0.48,0.01 0.72,0.01l1.45,-0.1c0.94,0.03 1.42,0.24 1.42,0.66Zm-8.39,12.27c-0.64,0 -1.18,0.22 -1.62,0.67c-0.44,0.45 -0.67,1 -0.67,1.68l0,0.11c0,0.77 0.3,1.38 0.91,1.83c0.61,0.45 1.44,0.67 2.5,0.67l0.35,0c1.27,0 2.3,-0.29 3.07,-0.87c0.77,-0.58 1.16,-1.26 1.16,-2.05l-0.01,-0.11c0,-0.52 -0.21,-0.93 -0.64,-1.25c-0.43,-0.31 -0.93,-0.47 -1.51,-0.47c-0.36,-0.04 -0.63,-0.07 -0.79,-0.07l-0.46,-0.04l-0.23,0l-0.82,-0.05l-0.56,-0.04l-0.68,0l0,-0.01Zm1.22,-12.12l-0.35,0c-0.48,0 -0.95,0.28 -1.4,0.83c-0.45,0.55 -0.68,1.2 -0.68,1.94l-0.03,0.22l-0.01,0.34l0,0.35l0.01,0.11c0,0.95 0.2,1.71 0.61,2.29c0.41,0.58 1.02,0.87 1.83,0.87l0.1,0c0.63,0 1.16,-0.25 1.61,-0.74c0.45,-0.49 0.67,-1.14 0.67,-1.95l0,-0.53c-0.03,-0.22 -0.04,-0.4 -0.04,-0.53c0,-0.86 -0.24,-1.61 -0.72,-2.25c-0.49,-0.64 -1.02,-0.95 -1.6,-0.95Z" style="fill:#fff;fill-rule:nonzero;"/><path d="M118.43,154.51c-1.28,0 -1.92,-0.18 -1.92,-0.54c0,-0.3 0.17,-0.55 0.5,-0.74c0.61,-0.35 0.96,-0.66 1.06,-0.93c0.1,-0.28 0.15,-1.59 0.15,-3.94c0,-2.35 -0.07,-3.73 -0.21,-4.13c-0.14,-0.4 -0.4,-0.74 -0.77,-1c-0.37,-0.26 -0.56,-0.48 -0.56,-0.64c-0,-0.16 0.12,-0.32 0.37,-0.46c0.57,-0.34 1.48,-0.5 2.73,-0.5c0.37,0 0.66,0.13 0.87,0.38c0.07,0.09 0.17,0.29 0.31,0.59c0.14,0.3 0.22,0.46 0.27,0.46c0.17,-0.01 0.44,-0.13 0.8,-0.37c1.25,-0.85 2.39,-1.27 3.41,-1.27l0.47,0c0.74,0 1.4,0.18 1.99,0.55c0.59,0.36 1.05,0.91 1.37,1.64c0.32,0.73 0.48,2.31 0.48,4.75c0,2.44 0.05,3.8 0.16,4.09c0.11,0.29 0.4,0.55 0.89,0.8c0.49,0.25 0.73,0.49 0.73,0.72c0,0.41 -1.29,0.61 -3.87,0.61l-0.41,0c-0.82,0 -1.23,-0.2 -1.23,-0.59c0,-0.08 0.1,-0.28 0.3,-0.59c0.2,-0.31 0.34,-0.66 0.41,-1.04c0.07,-0.38 0.11,-1.64 0.11,-3.77c0,-2.13 -0.13,-3.5 -0.4,-4.11c-0.36,-0.84 -0.97,-1.25 -1.81,-1.25c-0.62,0 -1.22,0.14 -1.79,0.43c-0.57,0.29 -1,0.69 -1.25,1.21c-0.26,0.52 -0.39,1.77 -0.39,3.75c0,1.98 0.05,3.17 0.16,3.59c0.11,0.41 0.24,0.75 0.4,1l0.5,0.82c0,0.35 -0.71,0.53 -2.14,0.53l-0.83,-0.03l-0.86,0l0,-0.02Z" style="fill:#fff;fill-rule:nonzero;"/><path d="M143.46,151.08c0,1.04 -0.43,1.93 -1.28,2.67c-0.85,0.74 -2.04,1.11 -3.54,1.11l-0.37,-0c-1.72,-0 -3.03,-0.21 -3.93,-0.64c-0.5,-0.24 -0.75,-0.76 -0.75,-1.58l0,-0.34c0,-1.04 0.2,-1.57 0.59,-1.57c0.33,-0 0.71,0.31 1.16,0.92c0.45,0.61 0.82,1.03 1.12,1.23c0.58,0.4 1.27,0.6 2.05,0.6c0.78,-0 1.37,-0.17 1.74,-0.5c0.37,-0.33 0.56,-0.77 0.56,-1.32c0,-0.54 -0.32,-1.05 -0.95,-1.51c-0.34,-0.25 -1.12,-0.63 -2.35,-1.16c-1.23,-0.53 -2.15,-1.08 -2.76,-1.66c-0.61,-0.58 -0.91,-1.39 -0.91,-2.45c0,-1.05 0.44,-1.91 1.32,-2.57c0.88,-0.66 1.97,-0.99 3.26,-0.99l0.37,-0c1.69,-0 2.88,0.2 3.56,0.6c0.35,0.21 0.53,0.79 0.53,1.75c0,0.95 -0.23,1.43 -0.68,1.43c-0.25,-0 -0.6,-0.28 -1.04,-0.85c-0.44,-0.57 -0.84,-0.97 -1.21,-1.21c-0.36,-0.24 -0.87,-0.36 -1.51,-0.36c-0.64,-0 -1.15,0.15 -1.52,0.44c-0.37,0.29 -0.56,0.71 -0.56,1.26c0,0.55 0.34,1.04 1.02,1.48c0.17,0.12 0.93,0.47 2.26,1.05c1.33,0.58 2.25,1.11 2.75,1.58c0.71,0.68 1.07,1.55 1.07,2.59Z" style="fill:#fff;fill-rule:nonzero;"/></g></g><g><path d="M85.45,15.52l1.06,-0c1.46,-0 3.13,0.18 5.03,0.55c1.89,0.36 3.38,0.58 4.46,0.64c1.08,0.06 1.94,0.27 2.56,0.62c1.21,0.69 1.81,2.47 1.81,5.34c0,2.87 -0.54,4.31 -1.62,4.31c-0.35,-0 -1.23,-0.8 -2.62,-2.39c-1.39,-1.59 -2.73,-2.73 -4,-3.42c-2.25,-1.21 -4.77,-1.81 -7.55,-1.81c-1.6,-0 -3.21,0.44 -4.84,1.31c-4.89,2.6 -7.34,8.26 -7.34,16.98c0.02,5.41 1.28,9.78 3.78,13.11c2.5,3.33 5.97,4.99 10.43,4.99c3.81,-0 7.03,-1.26 9.68,-3.78c1.64,-1.56 2.69,-2.34 3.15,-2.34c0.87,-0 1.31,0.64 1.31,1.9c0,0.65 -0.41,1.65 -1.22,3.03c-0.81,1.37 -1.72,2.34 -2.72,2.9c-2.81,1.56 -6.46,2.34 -10.96,2.34l-1.09,-0c-2.52,-0 -5.07,-0.46 -7.65,-1.37c-5.22,-1.85 -8.89,-5.51 -10.99,-10.99c-1.08,-2.85 -1.62,-5.97 -1.62,-9.35c0,-3.38 0.54,-6.49 1.62,-9.32c2.19,-5.74 5.89,-9.65 11.11,-11.71c2.65,-1.02 5.39,-1.54 8.22,-1.54Z" style="fill:#fff;fill-rule:nonzero;"/></g><path d="M131.09,21.25c-5.72,-14.13 -17.66,-21.21 -35.81,-21.25l-2.83,0c-0.36,0 -4.46,0.16 -12.28,0.49l-1.3,0.05l-1.3,0.11l-5.22,0.11c-5.54,-0 -8.31,0.69 -8.31,2.06c0,1.16 0.93,2.13 2.8,2.91c7.03,0.26 17.12,0.23 22.7,0.18c0.47,-0.03 0.97,-0.05 1.51,-0.05l2.61,-0c3.77,-0 7.08,0.62 9.94,1.85c7.07,3.01 11.79,8.61 14.18,16.79c1.16,4.06 1.74,8.02 1.74,11.9l0,3.91c0,4.17 -0.65,8.27 -1.96,12.31c-1.3,4.04 -3.1,7.31 -5.38,9.81c-4.29,4.74 -9.96,7.2 -16.98,7.45c-0.63,0.09 -1.3,0.14 -2.04,0.11l-0.04,0c-1.41,0 -2.64,-0.06 -3.68,-0.17c-7.56,-0.32 -13.46,-0.44 -16.86,-0.48l0.02,-0.02c0,-0 -7.62,-0.88 -8.51,2.41c-0.58,2.13 0.13,2.81 1.16,3.09c1.7,0.59 5.39,0.88 11.07,0.88l7.99,0.16c0.94,-0 1.87,0.02 2.77,0.05l2.77,0.05l1.36,0.05l4.08,0c5.47,0 10.47,-0.87 15,-2.61c9.85,-3.8 16.74,-10.38 20.65,-19.73c1.99,-4.78 2.99,-10.18 2.99,-16.19l0,-1.52c-0.01,-5.16 -0.96,-10.07 -2.84,-14.71Z" style="fill:#fff;fill-rule:nonzero;"/></g></g></svg>