<?xml version="1.0" encoding="UTF-8" standalone="no"?><!DOCTYPE svg PUBLIC "-//W3C//DTD SVG 1.1//EN" "http://www.w3.org/Graphics/SVG/1.1/DTD/svg11.dtd"><svg width="100%" height="100%" viewBox="0 0 259 216" version="1.1" xmlns="http://www.w3.org/2000/svg" xmlns:xlink="http://www.w3.org/1999/xlink" xml:space="preserve" xmlns:serif="http://www.serif.com/" style="fill-rule:evenodd;clip-rule:evenodd;stroke-linejoin:round;stroke-miterlimit:2;"><g><g><rect x="0" y="0" width="258.1" height="216" style="fill:#699055;"/><g><path d="M116.3,78.3l1.35,0c1.85,0 3.97,0.23 6.37,0.69c2.4,0.46 4.29,0.73 5.66,0.81c1.37,0.08 2.45,0.34 3.25,0.79c1.53,0.87 2.3,3.13 2.3,6.77c0,3.64 -0.69,5.46 -2.06,5.46c-0.45,0 -1.56,-1.01 -3.32,-3.03c-1.77,-2.02 -3.46,-3.46 -5.07,-4.33c-2.85,-1.53 -6.04,-2.3 -9.58,-2.3c-2.03,0 -4.08,0.55 -6.14,1.66c-6.2,3.3 -9.3,10.48 -9.3,21.53c0.03,6.86 1.62,12.4 4.79,16.62c3.17,4.22 7.57,6.33 13.22,6.33c4.83,0 8.92,-1.6 12.27,-4.79c2.08,-1.98 3.42,-2.97 4,-2.97c1.11,0 1.66,0.8 1.66,2.41c0,0.82 -0.51,2.1 -1.54,3.84c-1.03,1.74 -2.18,2.97 -3.44,3.68c-3.56,1.98 -8.19,2.97 -13.89,2.97l-1.39,0c-3.19,0 -6.43,-0.58 -9.7,-1.74c-6.62,-2.35 -11.27,-6.99 -13.93,-13.93c-1.37,-3.62 -2.06,-7.57 -2.06,-11.86c0,-4.29 0.69,-8.23 2.06,-11.82c2.77,-7.28 7.47,-12.23 14.09,-14.84c3.34,-1.29 6.81,-1.95 10.4,-1.95Z" style="fill:#fff;fill-rule:nonzero;"/></g><path d="M174.18,85.57c-7.26,-17.92 -22.4,-26.9 -45.41,-26.94l-3.58,-0c-0.46,-0 -5.65,0.21 -15.57,0.62l-1.65,0.07l-1.65,0.14l-6.61,0.14c-7.03,-0 -10.54,0.87 -10.54,2.62c0,1.47 1.18,2.7 3.55,3.69c8.91,0.33 21.7,0.29 28.79,0.23c0.6,-0.04 1.23,-0.06 1.91,-0.06l3.31,-0c4.78,-0 8.98,0.78 12.61,2.34c8.96,3.81 14.95,10.91 17.99,21.29c1.47,5.15 2.21,10.18 2.21,15.09l0,4.96c0,5.28 -0.83,10.49 -2.48,15.61c-1.65,5.12 -3.93,9.27 -6.82,12.44c-5.44,6 -12.63,9.13 -21.53,9.45c-0.8,0.12 -1.65,0.18 -2.59,0.13l-0.05,0c-1.79,0 -3.34,-0.07 -4.67,-0.21c-9.58,-0.41 -17.07,-0.56 -21.38,-0.61l0.03,-0.03c0,0 -9.66,-1.11 -10.79,3.05c-0.73,2.7 0.17,3.57 1.47,3.92c2.16,0.74 6.83,1.12 14.04,1.12l10.13,0.21c1.19,0 2.37,0.02 3.51,0.07l3.51,0.07l1.72,0.07l5.17,0c6.94,0 13.28,-1.1 19.02,-3.31c12.5,-4.82 21.22,-13.16 26.19,-25.01c2.53,-6.06 3.79,-12.91 3.79,-20.53l0,-1.93c-0.05,-6.59 -1.25,-12.82 -3.63,-18.7Z" style="fill:#fff;fill-rule:nonzero;"/></g></g></svg>