<?xml version="1.0" encoding="UTF-8" standalone="no"?><!DOCTYPE svg PUBLIC "-//W3C//DTD SVG 1.1//EN" "http://www.w3.org/Graphics/SVG/1.1/DTD/svg11.dtd"><svg width="100%" height="100%" viewBox="0 0 360 120" version="1.1" xmlns="http://www.w3.org/2000/svg" xmlns:xlink="http://www.w3.org/1999/xlink" xml:space="preserve" xmlns:serif="http://www.serif.com/" style="fill-rule:evenodd;clip-rule:evenodd;stroke-linejoin:round;stroke-miterlimit:2;"><g><g><g><path d="M144.553,8.49l1,0c1.37,0 2.95,0.17 4.73,0.51c1.78,0.34 3.18,0.54 4.2,0.6c1.02,0.06 1.82,0.25 2.41,0.59c1.14,0.65 1.7,2.32 1.7,5.03c-0,2.7 -0.51,4.06 -1.53,4.06c-0.33,0 -1.16,-0.75 -2.47,-2.25c-1.31,-1.5 -2.57,-2.57 -3.76,-3.22c-2.12,-1.14 -4.49,-1.7 -7.11,-1.7c-1.51,-0 -3.03,0.41 -4.56,1.23c-4.6,2.45 -6.91,7.78 -6.91,15.99c0.02,5.09 1.2,9.21 3.56,12.34c2.36,3.13 5.62,4.7 9.82,4.7c3.59,0 6.62,-1.19 9.11,-3.56c1.55,-1.47 2.54,-2.2 2.97,-2.2c0.82,0 1.23,0.6 1.23,1.79c-0,0.61 -0.38,1.56 -1.15,2.85c-0.76,1.29 -1.62,2.2 -2.56,2.73c-2.65,1.47 -6.08,2.2 -10.32,2.2l-1.03,0c-2.37,0 -4.77,-0.43 -7.2,-1.29c-4.92,-1.74 -8.37,-5.19 -10.34,-10.34c-1.02,-2.68 -1.53,-5.62 -1.53,-8.8c-0,-3.18 0.51,-6.11 1.53,-8.77c2.06,-5.41 5.54,-9.08 10.46,-11.02c2.51,-0.98 5.08,-1.47 7.75,-1.47Z" style="fill:#699055;fill-rule:nonzero;"/><path d="M164.913,48.11c-0,-0.35 0.42,-0.99 1.26,-1.93c0.84,-0.93 1.37,-1.87 1.57,-2.81c0.2,-0.94 0.31,-5.9 0.31,-14.87c-0,-8.97 -0.21,-14.41 -0.62,-16.31c-0.2,-0.92 -0.61,-1.6 -1.23,-2.03c-1.14,-0.8 -1.7,-1.23 -1.7,-1.29c-0,-0.72 0.38,-1.23 1.15,-1.53c1.45,-0.57 3.14,-0.85 5.08,-0.85l0.97,-0c0.9,-0 1.54,0.36 1.92,1.09c0.38,0.73 0.57,2.32 0.57,4.79l-0.03,1.09c-0.02,0.73 -0.03,1.45 -0.03,2.17l-0.06,2.17l-0,2.17c-0,2.57 0.45,3.85 1.35,3.85c0.1,-0.02 0.6,-0.23 1.5,-0.62c2.72,-1.21 5.01,-1.82 6.85,-1.82c3.45,-0 5.87,1.38 7.26,4.14c0.92,1.88 1.38,6.5 1.38,13.87c-0,2.84 0.1,4.61 0.31,5.3c0.21,0.7 0.76,1.42 1.67,2.16c0.91,0.74 1.37,1.21 1.37,1.41c-0,0.61 -0.4,1.02 -1.19,1.23c-0.79,0.22 -2.82,0.32 -6.07,0.32l-1.03,-0c-2.14,-0 -3.2,-0.43 -3.2,-1.29c-0,-0.2 0.25,-0.69 0.76,-1.48c0.51,-0.79 0.84,-1.69 1,-2.69c0.16,-1 0.24,-3.61 0.24,-7.85c-0,-4.24 -0.2,-6.9 -0.59,-7.99c-1.35,-1.76 -2.85,-2.84 -4.5,-3.23c-2.25,-0 -4.06,0.8 -5.41,2.41c-1,1.18 -1.5,3.85 -1.5,8.04c-0,4.18 0.1,6.85 0.29,7.99c0.19,1.14 0.62,2.18 1.28,3.12c0.66,0.93 0.98,1.5 0.98,1.72c-0,0.71 -1.99,1.06 -5.97,1.06c-3.95,0.02 -5.94,-0.49 -5.94,-1.51Z" style="fill:#699055;fill-rule:nonzero;"/><path d="M201.853,26.62c-0,-1.45 1.15,-2.75 3.45,-3.89c2.3,-1.15 4.69,-1.72 7.16,-1.72l0.23,0c2.35,0 4.23,0.28 5.64,0.85c2.86,1.14 4.5,3.55 4.91,7.23c0.04,0.37 0.06,2.84 0.06,7.39c-0,4.55 0.12,7.22 0.37,8.01c0.25,0.79 0.91,1.36 2,1.73c1.09,0.37 1.63,0.73 1.63,1.06c-0,0.71 -0.35,1.24 -1.06,1.62c-1.41,0.74 -2.8,1.12 -4.16,1.12c-1.36,0 -2.38,-0.31 -3.04,-0.94c-1.2,-1.12 -1.83,-1.68 -1.91,-1.68c-0.08,0 -1.19,0.5 -3.32,1.48c-2.14,0.99 -4.01,1.48 -5.61,1.48c-2.41,0 -4.3,-0.67 -5.67,-2c-1.37,-1.33 -2.06,-2.95 -2.06,-4.85l-0,-0.73c-0,-2.04 0.88,-3.83 2.65,-5.38c1.77,-1.55 4.94,-2.75 9.52,-3.61c1.67,-0.31 2.71,-0.61 3.14,-0.88c0.86,-0.55 1.29,-1.67 1.29,-3.35c-0,-1.68 -0.45,-2.98 -1.35,-3.88c-0.9,-0.9 -2.11,-1.35 -3.61,-1.35c-1.51,0 -2.96,0.88 -4.36,2.63c-1.4,1.75 -2.68,2.63 -3.84,2.63c-1.37,0 -2.06,-0.99 -2.06,-2.97Zm14.29,9.5l-0.5,0c-2.57,0 -4.71,0.57 -6.42,1.72c-1.71,1.15 -2.57,2.57 -2.57,4.28l-0,0.58c-0,1 0.31,1.9 0.93,2.69c0.62,0.79 1.42,1.19 2.4,1.19l0.35,0.06l0.88,0c2.04,0 3.7,-0.83 5,-2.5c0.57,-0.72 0.85,-2.21 0.85,-4.47l-0,-0.53l0.03,-0.71l-0,-0.71c-0.01,-1.06 -0.33,-1.6 -0.95,-1.6Z" style="fill:#699055;fill-rule:nonzero;"/><path d="M246.673,48.58c-0,0.76 -1.77,1.15 -5.32,1.15l-3.12,0l-1.23,-0.06l-1.85,-0.03c-2.08,0 -3.12,-0.37 -3.12,-1.12c-0,-0.53 0.47,-1.09 1.4,-1.69c0.93,-0.6 1.56,-1.37 1.88,-2.32c0.32,-0.95 0.48,-3.76 0.48,-8.42c-0,-4.66 -0.15,-7.49 -0.46,-8.49c-0.3,-1 -0.78,-1.71 -1.43,-2.15c-1.16,-0.76 -1.73,-1.32 -1.73,-1.68c-0,-0.36 0.21,-0.67 0.62,-0.94c1.21,-0.82 3.27,-1.23 6.17,-1.23l0.56,0c1.12,0 1.91,0.56 2.38,1.69c0.47,1.13 0.85,1.69 1.15,1.69c0.29,-0 0.8,-0.27 1.51,-0.82c0.71,-0.55 1.58,-1.1 2.59,-1.65c1.01,-0.55 2.13,-0.82 3.36,-0.82c1.23,0 2.18,0.32 2.84,0.96c0.66,0.64 0.98,1.45 0.98,2.45c-0.02,1.02 -0.28,1.78 -0.79,2.29c-0.51,0.51 -1.06,0.76 -1.65,0.76c-0.59,0 -1.36,-0.24 -2.32,-0.72c-0.96,-0.48 -1.76,-0.72 -2.41,-0.72c-0.65,0 -1.35,0.27 -2.12,0.81c-0.76,0.54 -1.42,1.5 -1.95,2.88c-0.54,1.38 -0.81,3.74 -0.81,7.08c-0,3.34 0.24,5.5 0.71,6.47c0.47,0.97 1.2,1.86 2.19,2.66c1,0.8 1.49,1.46 1.49,1.97Z" style="fill:#699055;fill-rule:nonzero;"/><path d="M270.983,45.84l4.47,-0.68c0.51,-0 0.76,0.4 0.76,1.19c-0,0.79 -0.75,1.61 -2.26,2.45c-1.51,0.84 -3.1,1.26 -4.76,1.26l-0.59,0c-1.31,0 -2.5,-0.34 -3.56,-1.03c-1.06,-0.69 -1.83,-1.53 -2.32,-2.53c-0.84,-1.74 -1.26,-5.05 -1.26,-9.92c-0,-4.87 -0.17,-7.91 -0.51,-9.12c-0.34,-1.21 -0.79,-2.05 -1.34,-2.5c-1.02,-0.82 -1.53,-1.27 -1.53,-1.35c-0,-0.51 0.26,-0.94 0.79,-1.29c1.35,-0.9 2.09,-1.42 2.22,-1.54c0.13,-0.13 0.88,-1.73 2.25,-4.81c0.69,-1.53 1.46,-2.29 2.34,-2.29c0.87,-0 1.45,0.31 1.75,0.94c0.08,0.16 0.25,1.01 0.51,2.56c0.26,1.55 0.64,2.54 1.13,2.98c0.49,0.44 1.58,0.86 3.26,1.26c1.68,0.4 2.53,0.97 2.53,1.72c-0,0.75 -0.93,1.3 -2.79,1.68c-1.86,0.38 -2.99,0.85 -3.38,1.44c-0.69,1 -1.03,3.82 -1.03,8.46c-0,4.64 0.21,7.57 0.65,8.79c0.54,1.56 1.43,2.33 2.67,2.33Z" style="fill:#699055;fill-rule:nonzero;"/><path d="M280.443,48.69c-0,-0.41 0.45,-0.94 1.34,-1.59c0.89,-0.65 1.49,-1.66 1.81,-3.04c0.32,-1.38 0.47,-6.63 0.47,-15.74c-0,-9.11 -0.1,-14.27 -0.31,-15.49c-0.21,-1.21 -0.71,-2.09 -1.51,-2.62c-1.29,-0.84 -1.94,-1.36 -1.94,-1.56l-0,-0.35c-0,-0.33 0.28,-0.63 0.85,-0.88c1.76,-0.76 4.11,-1.15 7.05,-1.15l0.59,-0c1,-0 1.58,0.68 1.73,2.03c0.02,0.18 0.03,1.66 0.03,4.44l-0,6.32l-0.03,1.22l-0,1.85l-0.03,1.21l-0,9.32c-0,5.8 0.09,9.39 0.28,10.77c0.19,1.38 0.62,2.39 1.31,3.01c0.08,0.06 0.49,0.31 1.23,0.76c0.74,0.45 1.12,0.91 1.12,1.38c-0,0.69 -1.21,1.03 -3.64,1.03l-1.21,0.06l-1.21,-0l-4.82,0.09l-0.62,-0c-1.66,-0.01 -2.49,-0.36 -2.49,-1.07Z" style="fill:#699055;fill-rule:nonzero;"/><path d="M305.243,38.41c-0,2.23 0.84,4.1 2.53,5.61c1.69,1.51 3.82,2.26 6.41,2.26c1.04,0 1.98,-0.15 2.84,-0.46c0.85,-0.3 1.78,-0.67 2.79,-1.1c1.01,-0.43 1.64,-0.65 1.9,-0.65c0.78,0 1.17,0.42 1.17,1.26c-0,1.14 -1.45,2.35 -4.35,3.64c-1.88,0.84 -3.9,1.26 -6.05,1.26l-0.65,0c-3.68,0 -6.74,-1.12 -9.17,-3.35c-1.31,-1.21 -2.33,-2.77 -3.06,-4.66c-0.72,-1.89 -1.09,-3.92 -1.09,-6.1l0.03,-0.68l-0,-0.68c-0,-1.88 0.43,-3.73 1.29,-5.55c0.88,-1.82 1.93,-3.32 3.14,-4.5c2.57,-2.47 5.61,-3.71 9.14,-3.73c5.33,0 8.88,2.08 10.64,6.23c0.55,1.31 0.82,2.52 0.82,3.61l-0,0.59c-0,1.35 -0.56,2.26 -1.68,2.72c-1.12,0.46 -3.75,0.84 -7.91,1.13c-4.16,0.29 -6.41,0.49 -6.76,0.59c-1.31,0.37 -1.98,1.21 -1.98,2.56Zm12.23,-7.79l-0,-0.91c-0,-1.45 -0.52,-2.76 -1.56,-3.92c-1.04,-1.16 -2.31,-1.75 -3.82,-1.75l-0.56,0c-0.27,0.04 -0.46,0.06 -0.56,0.06c-1.37,0 -2.67,0.78 -3.89,2.35c-1.22,1.57 -1.84,3.24 -1.84,5.03l-0,0.38c-0,0.63 0.37,0.94 1.12,0.94c0.29,0.06 0.45,0.09 0.47,0.09l0.68,0.03l0.18,-0l0.21,-0.03l5.67,-0.32l1.06,-0.12c1.89,-0.01 2.84,-0.61 2.84,-1.83Z" style="fill:#699055;fill-rule:nonzero;"/><path d="M338.043,25.39c-0,2.1 1.63,7.07 4.88,14.93c0.45,1.1 0.81,1.65 1.09,1.65c0.28,0 0.78,-0.79 1.53,-2.38c2.7,-5.72 4.06,-10.04 4.06,-12.96c-0,-0.84 -0.14,-1.53 -0.41,-2.06l-0.32,-0.53c-0.47,-0.63 -0.71,-1.07 -0.71,-1.32c-0,-0.76 1.24,-1.15 3.73,-1.15l1.88,0c2.37,0 3.56,0.45 3.56,1.35c-0,0.51 -0.48,1.29 -1.45,2.34c-0.97,1.05 -1.67,2.06 -2.1,3.04c-0.43,0.98 -2,5.07 -4.72,12.27c-2.71,7.2 -4.82,12.12 -6.3,14.75c-1.49,2.63 -2.88,4.53 -4.16,5.69c-1.28,1.16 -2.6,1.73 -3.95,1.73l-0.76,0c-1.02,0 -1.89,-0.29 -2.6,-0.87c-0.71,-0.58 -1.07,-1.18 -1.07,-1.79c-0,-0.61 0.25,-1.12 0.75,-1.5c0.5,-0.38 1.16,-0.57 1.98,-0.57l0.68,0.06c0.29,0.02 0.74,0.03 1.35,0.03c1.37,0 2.63,-0.88 3.79,-2.65c1.16,-1.76 1.73,-3.55 1.73,-5.35c-0,-1.8 -2.79,-8.61 -8.38,-20.42c-0.51,-1.08 -1.26,-2.19 -2.25,-3.35c-0.99,-1.16 -1.48,-1.96 -1.48,-2.41c-0,-0.74 0.52,-1.27 1.56,-1.57c1.04,-0.3 2.71,-0.46 5.01,-0.46c2.3,0 3.45,0.5 3.45,1.5c-0.25,1.02 -0.37,1.69 -0.37,2Z" style="fill:#699055;fill-rule:nonzero;"/></g><g><g><path d="M143.403,62.01l1.53,0c9.82,0.02 16.27,3.85 19.37,11.49c1.02,2.51 1.53,5.16 1.53,7.96l-0,0.82c-0,3.25 -0.54,6.17 -1.62,8.76c-2.12,5.05 -5.84,8.61 -11.17,10.67c-2.45,0.94 -5.15,1.41 -8.11,1.41l-2.2,-0l-0.73,-0.03l-1.5,-0.03c-0.49,-0.02 -0.99,-0.03 -1.5,-0.03l-4.32,-0.09c-4.39,-0 -6.58,-0.32 -6.58,-0.97c-0,-0.65 0.42,-1.19 1.26,-1.62c1.45,-0.75 2.28,-1.33 2.5,-1.76c0.47,-0.9 0.71,-2.96 0.71,-6.17l-0,-13.92l-0.06,-3.73l-0.06,-2.97c-0,-2.63 -0.23,-4.29 -0.69,-5c-0.46,-0.71 -1.2,-1.27 -2.2,-1.69c-1.01,-0.42 -1.51,-0.94 -1.51,-1.57c-0,-0.74 1.5,-1.12 4.5,-1.12l2.82,-0.06l0.71,-0.06l0.71,-0.03c4.2,-0.17 6.42,-0.26 6.61,-0.26Zm0.65,3.18l-1.41,0c-2.16,0 -3.35,0.43 -3.58,1.29c-0.12,0.41 -0.18,3.32 -0.18,8.73l-0,10.99l-0.03,1.44l-0,1.47l-0.03,1.44l-0,1.47l-0.03,1.91l-0,1.44c-0,2.04 0.28,3.3 0.85,3.78c0.57,0.48 1.95,0.72 4.14,0.72l0.47,-0.03c4.09,0 7.37,-1.35 9.82,-4.06c1.23,-1.35 2.2,-3.12 2.91,-5.3c0.71,-2.18 1.06,-4.4 1.06,-6.66l-0,-2.12c-0,-2.1 -0.31,-4.24 -0.94,-6.44c-1.29,-4.43 -3.85,-7.46 -7.67,-9.08c-1.55,-0.66 -3.34,-0.99 -5.38,-0.99Z" style="fill:#2f3f47;fill-rule:nonzero;"/><path d="M178.083,91.69c-0,2.23 0.84,4.1 2.53,5.61c1.68,1.51 3.82,2.26 6.41,2.26c1.04,0 1.98,-0.15 2.84,-0.46c0.85,-0.3 1.78,-0.67 2.79,-1.1c1.01,-0.43 1.64,-0.65 1.89,-0.65c0.78,0 1.18,0.42 1.18,1.26c-0,1.14 -1.45,2.35 -4.35,3.64c-1.88,0.84 -3.9,1.26 -6.05,1.26l-0.65,-0c-3.68,-0 -6.74,-1.12 -9.17,-3.35c-1.31,-1.21 -2.33,-2.77 -3.06,-4.66c-0.73,-1.89 -1.09,-3.92 -1.09,-6.1l0.03,-0.68l-0,-0.68c-0,-1.88 0.43,-3.73 1.29,-5.55c0.88,-1.82 1.93,-3.32 3.14,-4.5c2.57,-2.47 5.61,-3.71 9.14,-3.73c5.33,-0 8.88,2.08 10.64,6.23c0.55,1.31 0.82,2.52 0.82,3.62l-0,0.59c-0,1.35 -0.56,2.26 -1.68,2.72c-1.12,0.46 -3.75,0.84 -7.9,1.13c-4.15,0.29 -6.41,0.49 -6.76,0.59c-1.32,0.36 -1.99,1.2 -1.99,2.55Zm12.23,-7.78l-0,-0.91c-0,-1.45 -0.52,-2.76 -1.56,-3.92c-1.04,-1.17 -2.31,-1.75 -3.82,-1.75l-0.56,0c-0.27,0.04 -0.46,0.06 -0.56,0.06c-1.37,0 -2.67,0.78 -3.89,2.35c-1.22,1.57 -1.84,3.24 -1.84,5.03l-0,0.38c-0,0.63 0.37,0.94 1.12,0.94c0.29,0.06 0.45,0.09 0.47,0.09l0.68,0.03l0.17,0l0.21,-0.03l5.67,-0.32l1.06,-0.12c1.9,-0.01 2.85,-0.62 2.85,-1.83Z" style="fill:#2f3f47;fill-rule:nonzero;"/><path d="M223.133,95.38c-0,2.24 -0.92,4.16 -2.76,5.76c-1.84,1.6 -4.39,2.4 -7.64,2.4l-0.79,0c-3.7,0 -6.52,-0.46 -8.46,-1.38c-1.08,-0.51 -1.62,-1.65 -1.62,-3.41l-0,-0.73c-0,-2.25 0.42,-3.38 1.26,-3.38c0.71,0 1.54,0.66 2.5,1.98c0.96,1.32 1.76,2.21 2.41,2.66c1.25,0.86 2.73,1.29 4.42,1.29c1.69,-0 2.94,-0.36 3.75,-1.07c0.8,-0.71 1.21,-1.66 1.21,-2.84c-0,-1.18 -0.69,-2.26 -2.06,-3.26c-0.73,-0.53 -2.42,-1.36 -5.07,-2.5c-2.66,-1.14 -4.64,-2.33 -5.95,-3.57c-1.31,-1.24 -1.97,-3 -1.97,-5.28c-0,-2.27 0.95,-4.12 2.85,-5.54c1.9,-1.42 4.24,-2.13 7.02,-2.13l0.79,0c3.64,0 6.2,0.43 7.67,1.29c0.76,0.45 1.15,1.7 1.15,3.76c-0,2.06 -0.49,3.09 -1.47,3.09c-0.55,0 -1.3,-0.61 -2.25,-1.84c-0.95,-1.22 -1.82,-2.1 -2.6,-2.62c-0.78,-0.52 -1.87,-0.78 -3.25,-0.78c-1.38,0 -2.47,0.31 -3.28,0.94c-0.8,0.63 -1.21,1.53 -1.21,2.72c-0,1.19 0.73,2.25 2.2,3.19c0.37,0.25 2,1.01 4.88,2.26c2.88,1.25 4.86,2.39 5.94,3.41c1.56,1.48 2.33,3.34 2.33,5.58Z" style="fill:#2f3f47;fill-rule:nonzero;"/><path d="M229.633,78.38c-1.02,-0.49 -1.53,-0.95 -1.53,-1.38c-0,-0.43 0.21,-0.77 0.62,-1.03c1.43,-0.86 3.69,-1.29 6.79,-1.29l0.85,0c1.06,0 1.66,0.49 1.79,1.47c0.08,0.53 0.12,4.09 0.12,10.68c-0,6.59 0.14,10.37 0.41,11.34c0.27,0.97 0.93,1.71 1.97,2.23c1.04,0.52 1.56,1.04 1.56,1.57c-0,0.74 -2.43,1.12 -7.29,1.12l-0.88,0.03l-3.58,0c-1.43,0 -2.15,-0.35 -2.15,-1.06c-0,-0.59 0.44,-1.16 1.31,-1.7c0.87,-0.55 1.47,-1.16 1.81,-1.82c0.37,-0.72 0.56,-2.42 0.56,-5.08l0.03,-0.94l-0,-0.91l0.03,-1.38l-0,-0.91l0.03,-0.91c-0,-4.64 -0.15,-7.35 -0.46,-8.13c-0.31,-0.78 -0.97,-1.41 -1.99,-1.9Zm9.34,-13.11c-0,0.86 -0.37,1.66 -1.1,2.4c-0.73,0.73 -1.46,1.1 -2.19,1.1c-0.16,0.04 -0.28,0.06 -0.38,0.06l-0.65,0.06c-0.98,-0 -1.86,-0.32 -2.63,-0.97c-0.77,-0.65 -1.16,-1.48 -1.16,-2.5l-0,-0.53c-0,-1.02 0.41,-1.88 1.22,-2.57c0.81,-0.7 1.75,-1.04 2.81,-1.04l0.15,-0l1,0.12c0.61,-0 1.24,0.33 1.9,0.98c0.66,0.65 0.99,1.32 0.99,1.98l0.06,0.26l-0,0.65l-0.02,-0Z" style="fill:#2f3f47;fill-rule:nonzero;"/><path d="M274.713,75.85c-0,1.12 -0.71,1.83 -2.12,2.13c-1.41,0.3 -2.12,0.89 -2.12,1.75l0.09,0.62l0.12,0.71l0.15,0.76c0.1,0.65 0.15,1.56 0.15,2.73c-0,1.18 -0.33,2.39 -1,3.64c-1.86,3.47 -5.45,5.37 -10.76,5.7c-1.7,0.12 -2.79,0.26 -3.26,0.44c-1.02,0.39 -1.53,1.05 -1.53,1.97c-0,0.92 0.75,1.57 2.26,1.94c0.22,0.06 2.17,0.25 5.85,0.56c3.68,0.29 6.14,0.75 7.38,1.38c2.61,1.29 3.91,3.16 3.91,5.61c-0,3.21 -1.44,5.83 -4.31,7.85c-2.87,2.02 -6.63,3.03 -11.27,3.03c-3.27,-0 -6,-0.63 -8.17,-1.88c-1,-0.57 -1.81,-1.31 -2.42,-2.22c-0.62,-0.91 -0.93,-1.86 -0.93,-2.84c-0,-1.74 0.52,-3.19 1.56,-4.35c1.67,-1.84 2.5,-2.82 2.5,-2.94c-0,-0.12 -0.36,-0.64 -1.09,-1.56c-0.73,-0.92 -1.09,-1.88 -1.09,-2.88c-0,-1 0.48,-2.08 1.43,-3.25c0.95,-1.17 1.42,-1.82 1.42,-1.95c-0,-0.14 -0.59,-1.14 -1.76,-3.01c-1.17,-1.87 -1.76,-3.65 -1.76,-5.33c-0,-1.68 0.36,-3.18 1.09,-4.5c2.06,-3.74 5.89,-5.61 11.49,-5.61l0.85,-0l4.08,0.26l1.5,0.06c0.51,0.02 1.03,0.03 1.56,0.03l3.12,-0.21c2.05,0.01 3.08,0.46 3.08,1.36Zm-18.07,26.45c-1.37,-0 -2.54,0.48 -3.5,1.44c-0.96,0.96 -1.44,2.17 -1.44,3.62l-0,0.24c-0,1.67 0.66,2.98 1.97,3.94c1.31,0.96 3.11,1.44 5.38,1.44l0.76,-0c2.74,-0 4.95,-0.63 6.61,-1.88c1.67,-1.25 2.5,-2.72 2.5,-4.41l-0.03,-0.24c-0,-1.12 -0.46,-2.01 -1.38,-2.69c-0.92,-0.68 -2.01,-1.01 -3.26,-1.01c-0.78,-0.1 -1.35,-0.15 -1.7,-0.15l-1,-0.09l-0.5,-0l-1.76,-0.12l-1.21,-0.09l-1.44,-0Zm2.61,-26.12l-0.76,0c-1.04,0 -2.05,0.6 -3.03,1.79c-0.98,1.2 -1.47,2.59 -1.47,4.17l-0.06,0.47l-0.03,0.73l-0,0.76l0.03,0.24c-0,2.04 0.44,3.68 1.32,4.94c0.88,1.25 2.19,1.88 3.94,1.88l0.21,-0c1.35,-0 2.51,-0.53 3.47,-1.59c0.96,-1.06 1.44,-2.46 1.44,-4.2l-0,-1.15c-0.06,-0.47 -0.09,-0.85 -0.09,-1.15c-0,-1.86 -0.51,-3.48 -1.54,-4.85c-1.03,-1.36 -2.18,-2.04 -3.43,-2.04Z" style="fill:#2f3f47;fill-rule:nonzero;"/><path d="M283.353,102.77c-2.76,0 -4.14,-0.39 -4.14,-1.17c-0,-0.65 0.36,-1.18 1.09,-1.59c1.31,-0.74 2.08,-1.42 2.29,-2.01c0.21,-0.6 0.32,-3.43 0.32,-8.49c-0,-5.06 -0.15,-8.03 -0.46,-8.9c-0.31,-0.87 -0.86,-1.59 -1.66,-2.16c-0.8,-0.57 -1.21,-1.03 -1.21,-1.38c-0,-0.35 0.26,-0.69 0.79,-1c1.23,-0.72 3.19,-1.09 5.88,-1.09c0.8,0 1.43,0.27 1.88,0.82c0.16,0.2 0.38,0.62 0.66,1.28c0.28,0.66 0.47,0.99 0.57,0.99c0.37,-0.02 0.95,-0.28 1.73,-0.79c2.7,-1.82 5.15,-2.73 7.35,-2.73l1,0c1.59,0 3.02,0.39 4.29,1.18c1.27,0.78 2.26,1.96 2.95,3.53c0.7,1.57 1.04,4.98 1.04,10.24c-0,5.26 0.11,8.2 0.34,8.82c0.22,0.62 0.86,1.19 1.91,1.72c1.05,0.53 1.57,1.05 1.57,1.56c-0,0.88 -2.78,1.32 -8.35,1.32l-0.88,0c-1.76,0 -2.65,-0.42 -2.65,-1.26c-0,-0.18 0.22,-0.6 0.65,-1.28c0.43,-0.68 0.72,-1.43 0.88,-2.25c0.16,-0.82 0.24,-3.53 0.24,-8.12c-0,-4.59 -0.28,-7.55 -0.85,-8.86c-0.78,-1.8 -2.09,-2.7 -3.91,-2.7c-1.33,0 -2.62,0.31 -3.87,0.93c-1.25,0.62 -2.14,1.49 -2.7,2.62c-0.56,1.13 -0.84,3.82 -0.84,8.08c-0,4.26 0.12,6.84 0.35,7.73c0.24,0.89 0.52,1.61 0.85,2.16l1.09,1.76c-0,0.76 -1.54,1.15 -4.61,1.15l-1.79,-0.06l-1.8,0l-0,-0.05Z" style="fill:#2f3f47;fill-rule:nonzero;"/><path d="M337.313,95.38c-0,2.24 -0.92,4.16 -2.76,5.76c-1.84,1.6 -4.39,2.4 -7.64,2.4l-0.79,0c-3.7,0 -6.52,-0.46 -8.46,-1.38c-1.08,-0.51 -1.62,-1.65 -1.62,-3.41l-0,-0.73c-0,-2.25 0.42,-3.38 1.26,-3.38c0.71,0 1.54,0.66 2.5,1.98c0.96,1.32 1.76,2.21 2.41,2.66c1.25,0.86 2.73,1.29 4.42,1.29c1.69,-0 2.94,-0.36 3.75,-1.07c0.8,-0.71 1.21,-1.66 1.21,-2.84c-0,-1.18 -0.69,-2.26 -2.06,-3.26c-0.73,-0.53 -2.42,-1.36 -5.07,-2.5c-2.66,-1.14 -4.64,-2.33 -5.95,-3.57c-1.31,-1.24 -1.97,-3 -1.97,-5.28c-0,-2.27 0.95,-4.12 2.85,-5.54c1.9,-1.42 4.24,-2.13 7.02,-2.13l0.79,0c3.64,0 6.2,0.43 7.67,1.29c0.76,0.45 1.15,1.7 1.15,3.76c-0,2.06 -0.49,3.09 -1.47,3.09c-0.55,0 -1.3,-0.61 -2.25,-1.84c-0.95,-1.22 -1.82,-2.1 -2.6,-2.62c-0.78,-0.52 -1.87,-0.78 -3.25,-0.78c-1.38,0 -2.47,0.31 -3.28,0.94c-0.8,0.63 -1.21,1.53 -1.21,2.72c-0,1.19 0.73,2.25 2.2,3.19c0.37,0.25 2,1.01 4.88,2.26c2.88,1.25 4.86,2.39 5.94,3.41c1.55,1.48 2.33,3.34 2.33,5.58Z" style="fill:#2f3f47;fill-rule:nonzero;"/></g></g><g><path d="M34.293,24.09l1.56,0c2.14,0 4.6,0.27 7.37,0.8c2.78,0.53 4.96,0.85 6.55,0.94c1.59,0.09 2.84,0.4 3.76,0.92c1.77,1.01 2.66,3.62 2.66,7.83c-0,4.21 -0.79,6.32 -2.38,6.32c-0.52,-0 -1.8,-1.17 -3.85,-3.5c-2.05,-2.34 -4,-4.01 -5.86,-5.02c-3.3,-1.77 -6.99,-2.66 -11.09,-2.66c-2.35,-0 -4.72,0.64 -7.1,1.92c-7.18,3.82 -10.76,12.12 -10.76,24.92c0.03,7.94 1.88,14.35 5.54,19.24c3.66,4.89 8.76,7.33 15.3,7.33c5.59,0 10.32,-1.85 14.2,-5.54c2.41,-2.29 3.95,-3.44 4.63,-3.44c1.28,0 1.92,0.93 1.92,2.79c-0,0.95 -0.6,2.43 -1.79,4.44c-1.19,2.02 -2.52,3.44 -3.98,4.26c-4.12,2.29 -9.48,3.43 -16.08,3.43l-1.6,-0c-3.69,-0 -7.44,-0.67 -11.22,-2.02c-7.67,-2.72 -13.04,-8.09 -16.12,-16.12c-1.59,-4.18 -2.38,-8.76 -2.38,-13.72c-0,-4.96 0.79,-9.52 2.38,-13.67c3.21,-8.43 8.64,-14.15 16.31,-17.18c3.86,-1.5 7.87,-2.27 12.03,-2.27Z" style="fill:#699055;fill-rule:nonzero;"/></g><path d="M101.273,32.51c-8.4,-20.73 -25.92,-31.13 -52.55,-31.18l-4.15,0c-0.53,0 -6.54,0.24 -18.02,0.72l-1.91,0.08l-1.91,0.16l-7.65,0.16c-8.13,-0 -12.2,1.01 -12.2,3.03c-0,1.7 1.37,3.12 4.11,4.27l0.01,0c10.31,0.38 25.12,0.33 33.31,0.26c0.69,-0.04 1.42,-0.07 2.21,-0.07l3.83,-0c5.53,-0 10.39,0.9 14.59,2.71c10.37,4.41 17.31,12.63 20.81,24.64c1.7,5.95 2.55,11.78 2.55,17.46l-0,5.74c-0,6.11 -0.96,12.13 -2.87,18.06c-1.91,5.93 -4.55,10.73 -7.89,14.39c-6.3,6.95 -14.62,10.56 -24.92,10.93c-0.92,0.14 -1.91,0.21 -3,0.15l-0.05,0c-2.08,0 -3.87,-0.09 -5.4,-0.25c-11.09,-0.48 -19.75,-0.65 -24.74,-0.71l0.03,-0.03c-0,0 -11.18,-1.29 -12.49,3.53c-0.85,3.12 0.19,4.13 1.7,4.54c2.5,0.86 7.91,1.29 16.25,1.29l11.72,0.24c1.38,-0 2.74,0.03 4.07,0.08l4.07,0.08l1.99,0.08l5.98,0c8.03,0 15.36,-1.28 22.01,-3.83c14.46,-5.58 24.56,-15.23 30.3,-28.95c2.92,-7.02 4.39,-14.94 4.39,-23.76l-0,-2.23c-0.04,-7.58 -1.42,-14.78 -4.18,-21.59Z" style="fill:#2f3f47;fill-rule:nonzero;"/></g></g></svg>